<svg width="60" height="60" viewBox="0 0 60 60" fill="none" xmlns="http://www.w3.org/2000/svg">
<path d="M32.5 54.8766C31.6777 54.9582 30.8437 55 30 55C29.1563 55 28.3223 54.9582 27.5 54.8766V35H25C23.6193 35 22.5 33.8807 22.5 32.5C22.5 31.1193 23.6193 30 25 30H27.5V25C27.5 20.8579 30.8579 17.5 35 17.5H37.5C38.8807 17.5 40 18.6193 40 20C40 21.3807 38.8807 22.5 37.5 22.5H35C33.6193 22.5 32.5 23.6193 32.5 25V30H37.5C38.8807 30 40 31.1193 40 32.5C40 33.8807 38.8807 35 37.5 35H32.5V54.8766Z" fill="white"/>
<path fill-rule="evenodd" clip-rule="evenodd" d="M30 50C41.0457 50 50 41.0457 50 30C50 18.9543 41.0457 10 30 10C18.9543 10 10 18.9543 10 30C10 41.0457 18.9543 50 30 50ZM30 55C43.8071 55 55 43.8071 55 30C55 16.1929 43.8071 5 30 5C16.1929 5 5 16.1929 5 30C5 43.8071 16.1929 55 30 55Z" fill="white"/>
</svg>
