<svg width="60" height="60" viewBox="0 0 60 60" fill="none" xmlns="http://www.w3.org/2000/svg">
<path d="M30 6.9375C37.5 6.9375 38.4 6.96562 41.3644 7.10063C43.1483 7.12168 44.9154 7.44959 46.5881 8.07C47.8093 8.52081 48.9139 9.23969 49.8206 10.1737C50.7547 11.0805 51.4736 12.185 51.9244 13.4062C52.5448 15.079 52.8727 16.846 52.8938 18.63C53.0288 21.6 53.0625 22.5 53.0625 30C53.0625 37.5 53.0344 38.4 52.8994 41.3644C52.8783 43.1483 52.5504 44.9154 51.93 46.5881C51.4618 47.8005 50.7452 48.9016 49.8262 49.8206C48.9072 50.7396 47.8062 51.4562 46.5938 51.9244C44.921 52.5448 43.154 52.8727 41.37 52.8937C38.4056 53.0287 37.515 53.0569 30.0056 53.0569C22.4963 53.0569 21.6056 53.0287 18.6413 52.8937C16.8573 52.8727 15.0902 52.5448 13.4175 51.9244C12.1963 51.4736 11.0917 50.7547 10.185 49.8206C9.25094 48.9139 8.53206 47.8093 8.08125 46.5881C7.46084 44.9154 7.13293 43.1483 7.11188 41.3644C6.97125 38.4 6.9375 37.5094 6.9375 30C6.9375 22.4906 6.96563 21.6 7.10063 18.6356C7.12168 16.8517 7.44959 15.0846 8.07 13.4119C8.52245 12.1901 9.24328 11.0855 10.1794 10.1794C11.0861 9.24531 12.1907 8.52643 13.4119 8.07563C15.0846 7.45521 16.8517 7.1273 18.6356 7.10625C21.6 6.97125 22.5 6.9375 30 6.9375ZM30 1.875C22.3613 1.875 21.4031 1.90688 18.405 2.04375C16.071 2.0932 13.7622 2.53695 11.5763 3.35625C9.70081 4.06208 8.00147 5.16767 6.59625 6.59625C5.16564 8.00092 4.05811 9.7003 3.35063 11.5763C2.53133 13.7622 2.08757 16.071 2.03813 18.405C1.90688 21.4031 1.875 22.3612 1.875 30C1.875 37.6387 1.90688 38.5969 2.04375 41.595C2.0932 43.929 2.53695 46.2378 3.35625 48.4238C4.06373 50.2997 5.17127 51.9991 6.60188 53.4038C8.00655 54.8344 9.70592 55.9419 11.5819 56.6494C13.7679 57.4687 16.0767 57.9124 18.4106 57.9619C21.4106 58.0988 22.3669 58.1306 30.0056 58.1306C37.6444 58.1306 38.6025 58.0988 41.6006 57.9619C43.9346 57.9124 46.2434 57.4687 48.4294 56.6494C50.297 55.9255 51.9931 54.8201 53.4094 53.4038C54.8257 51.9874 55.9311 50.2913 56.655 48.4238C57.4743 46.2378 57.9181 43.929 57.9675 41.595C58.1044 38.595 58.1363 37.6387 58.1363 30C58.1363 22.3612 58.1044 21.4031 57.9675 18.405C57.9181 16.071 57.4743 13.7622 56.655 11.5763C55.9475 9.7003 54.84 8.00092 53.4094 6.59625C52.0047 5.16564 50.3053 4.05811 48.4294 3.35062C46.2434 2.53133 43.9346 2.08757 41.6006 2.03813C38.5969 1.90688 37.6388 1.875 30 1.875Z" fill="white"/>
<path d="M30 15.5625C27.1445 15.5625 24.3532 16.4092 21.9789 17.9957C19.6047 19.5821 17.7542 21.8369 16.6615 24.475C15.5687 27.1131 15.2828 30.016 15.8399 32.8166C16.397 35.6172 17.772 38.1897 19.7911 40.2089C21.8102 42.228 24.3828 43.603 27.1834 44.1601C29.984 44.7172 32.8869 44.4313 35.525 43.3385C38.1631 42.2458 40.4179 40.3953 42.0043 38.021C43.5907 35.6468 44.4375 32.8555 44.4375 30C44.4375 26.1709 42.9164 22.4987 40.2088 19.7911C37.5013 17.0836 33.829 15.5625 30 15.5625ZM30 39.375C28.1458 39.375 26.3332 38.8252 24.7915 37.795C23.2498 36.7649 22.0482 35.3007 21.3386 33.5877C20.629 31.8746 20.4434 29.9896 20.8051 28.171C21.1668 26.3525 22.0597 24.682 23.3708 23.3709C24.682 22.0598 26.3524 21.1669 28.171 20.8051C29.9896 20.4434 31.8746 20.6291 33.5876 21.3386C35.3007 22.0482 36.7649 23.2498 37.795 24.7915C38.8251 26.3332 39.375 28.1458 39.375 30C39.375 32.4864 38.3873 34.871 36.6291 36.6291C34.8709 38.3873 32.4864 39.375 30 39.375Z" fill="white"/>
<path d="M45.0131 18.3619C46.8771 18.3619 48.3881 16.8508 48.3881 14.9869C48.3881 13.1229 46.8771 11.6119 45.0131 11.6119C43.1492 11.6119 41.6381 13.1229 41.6381 14.9869C41.6381 16.8508 43.1492 18.3619 45.0131 18.3619Z" fill="white"/>
</svg>
