<svg width="60" height="60" viewBox="0 0 60 60" fill="none" xmlns="http://www.w3.org/2000/svg">
<path fill-rule="evenodd" clip-rule="evenodd" d="M21.8968 7.5H38.1033C40.1157 7.49997 41.7766 7.49994 43.1296 7.61049C44.5348 7.7253 45.8266 7.97171 47.0399 8.58994C48.9215 9.54867 50.4513 11.0785 51.4101 12.9601C52.0283 14.1734 52.2747 15.4652 52.3895 16.8704C52.5001 18.2234 52.5 19.8843 52.5 21.8967V38.1033C52.5 40.1157 52.5001 41.7766 52.3895 43.1296C52.2747 44.5348 52.0283 45.8266 51.4101 47.0399C50.4513 48.9215 48.9215 50.4513 47.0399 51.4101C45.8266 52.0283 44.5348 52.2747 43.1296 52.3895C41.7766 52.5001 40.1157 52.5 38.1033 52.5H21.8967C19.8843 52.5 18.2234 52.5001 16.8704 52.3895C15.4652 52.2747 14.1734 52.0283 12.9601 51.4101C11.0785 50.4513 9.54867 48.9215 8.58994 47.0399C7.97171 45.8266 7.7253 44.5348 7.61049 43.1296C7.49994 41.7766 7.49997 40.1157 7.5 38.1033V21.8968C7.49997 19.8843 7.49994 18.2234 7.61049 16.8704C7.7253 15.4652 7.97171 14.1734 8.58994 12.9601C9.54867 11.0785 11.0785 9.54867 12.9601 8.58994C14.1734 7.97171 15.4652 7.7253 16.8704 7.61049C18.2234 7.49994 19.8843 7.49997 21.8968 7.5ZM17.2776 12.5939C16.1816 12.6834 15.621 12.8457 15.2301 13.045C14.2892 13.5243 13.5243 14.2892 13.045 15.2301C12.8457 15.621 12.6834 16.1816 12.5939 17.2776C12.5019 18.4028 12.5 19.8586 12.5 22V38C12.5 40.1415 12.5019 41.5972 12.5939 42.7224C12.6834 43.8184 12.8457 44.379 13.045 44.77C13.5243 45.7108 14.2892 46.4757 15.2301 46.955C15.621 47.1543 16.1816 47.3166 17.2776 47.4061C18.4028 47.4981 19.8586 47.5 22 47.5H38C40.1415 47.5 41.5972 47.4981 42.7224 47.4061C43.8184 47.3166 44.379 47.1543 44.77 46.955C45.7108 46.4757 46.4757 45.7108 46.955 44.77C47.1543 44.379 47.3166 43.8184 47.4061 42.7224C47.4981 41.5972 47.5 40.1415 47.5 38V22C47.5 19.8586 47.4981 18.4028 47.4061 17.2776C47.3166 16.1816 47.1543 15.621 46.955 15.2301C46.4757 14.2892 45.7108 13.5243 44.77 13.045C44.379 12.8457 43.8184 12.6834 42.7224 12.5939C41.5972 12.5019 40.1415 12.5 38 12.5H22C19.8586 12.5 18.4028 12.5019 17.2776 12.5939Z" fill="white"/>
<path fill-rule="evenodd" clip-rule="evenodd" d="M20 22.5C21.3807 22.5 22.5 21.3807 22.5 20C22.5 18.6193 21.3807 17.5 20 17.5C18.6193 17.5 17.5 18.6193 17.5 20C17.5 21.3807 18.6193 22.5 20 22.5ZM20 27.5C18.6193 27.5 17.5 28.6193 17.5 30V40C17.5 41.3807 18.6193 42.5 20 42.5C21.3807 42.5 22.5 41.3807 22.5 40V30C22.5 28.6193 21.3807 27.5 20 27.5ZM35 32.5C33.6193 32.5 32.5 33.6193 32.5 35V40C32.5 41.3807 31.3807 42.5 30 42.5C28.6193 42.5 27.5 41.3807 27.5 40V35V30C27.5 28.6193 28.6193 27.5 30 27.5C30.6897 27.5 31.3141 27.7793 31.7665 28.2309C32.7455 27.7624 33.8421 27.5 35 27.5C39.1421 27.5 42.5 30.8579 42.5 35V40C42.5 41.3807 41.3807 42.5 40 42.5C38.6193 42.5 37.5 41.3807 37.5 40V35C37.5 33.6193 36.3807 32.5 35 32.5Z" fill="white"/>
</svg>
