<svg width="60" height="60" viewBox="0 0 60 60" fill="none" xmlns="http://www.w3.org/2000/svg">
<path fill-rule="evenodd" clip-rule="evenodd" d="M20.9912 7.5H39.0089C41.7639 7.49998 43.9861 7.49995 45.7846 7.64931C47.6366 7.80311 49.2622 8.12814 50.7622 8.90733C53.0452 10.0933 54.9067 11.9548 56.0927 14.2378C56.8719 15.7378 57.1969 17.3634 57.3507 19.2154C57.5 21.0139 57.5 23.2361 57.5 25.9912V34.0088C57.5 36.7639 57.5 38.9861 57.3507 40.7846C57.1969 42.6366 56.8719 44.2622 56.0927 45.7622C54.9067 48.0452 53.0452 49.9067 50.7622 51.0927C49.2622 51.8719 47.6366 52.1969 45.7846 52.3507C43.9861 52.5 41.7639 52.5 39.0088 52.5H20.9912C18.2361 52.5 16.0139 52.5 14.2154 52.3507C12.3634 52.1969 10.7378 51.8719 9.23782 51.0927C6.95478 49.9067 5.09328 48.0452 3.90733 45.7622C3.12814 44.2622 2.80311 42.6366 2.64931 40.7846C2.49995 38.9861 2.49998 36.7639 2.5 34.0089V25.9912C2.49998 23.2361 2.49995 21.0139 2.64931 19.2154C2.80311 17.3634 3.12814 15.7378 3.90733 14.2378C5.09328 11.9548 6.95478 10.0933 9.23782 8.90733C10.7378 8.12814 12.3634 7.80311 14.2154 7.64931C16.0139 7.49995 18.2361 7.49998 20.9912 7.5ZM13.1318 12.8263C15.2535 13.324 17.2229 14.379 18.8254 15.9052L26.1724 22.9023C27.1885 23.87 27.8436 24.4913 28.3807 24.9255C28.8937 25.3402 29.1352 25.4451 29.2689 25.4859C29.7454 25.6317 30.2546 25.6317 30.7311 25.4859C30.8648 25.4451 31.1063 25.3402 31.6193 24.9255C32.1564 24.4913 32.8116 23.87 33.8276 22.9023L41.1746 15.9052C42.7771 14.379 44.7465 13.324 46.8682 12.8263C46.4481 12.7456 45.9571 12.6808 45.3708 12.6322C43.8036 12.502 41.7894 12.5 38.9 12.5H21.1C18.2106 12.5 16.1964 12.502 14.6292 12.6322C14.0429 12.6808 13.5519 12.7456 13.1318 12.8263ZM52.0265 17.5H49.6875C47.8018 17.5 45.9884 18.2254 44.6228 19.5259L37.2069 26.5886C36.2794 27.4721 35.4769 28.2364 34.7627 28.8138C34.0067 29.4249 33.1899 29.9626 32.1934 30.2673C30.7638 30.7045 29.2362 30.7045 27.8066 30.2673C26.8101 29.9626 25.9933 29.4249 25.2373 28.8138C24.523 28.2364 23.7206 27.472 22.793 26.5886L15.3772 19.5259C14.0116 18.2254 12.1982 17.5 10.3125 17.5H7.97354C7.82147 18.0416 7.70758 18.721 7.63216 19.6292C7.50201 21.1964 7.5 23.2106 7.5 26.1V33.9C7.5 36.7894 7.50201 38.8036 7.63216 40.3708C7.75982 41.9081 7.99773 42.7899 8.3444 43.4573C9.05597 44.8271 10.1729 45.944 11.5427 46.6556C12.2101 47.0023 13.0919 47.2402 14.6292 47.3678C16.1964 47.498 18.2106 47.5 21.1 47.5H38.9C41.7894 47.5 43.8036 47.498 45.3708 47.3678C46.9081 47.2402 47.7899 47.0023 48.4573 46.6556C49.8271 45.944 50.944 44.8271 51.6556 43.4573C52.0023 42.7899 52.2402 41.9081 52.3678 40.3708C52.498 38.8036 52.5 36.7894 52.5 33.9V26.1C52.5 23.2106 52.498 21.1964 52.3678 19.6292C52.2924 18.721 52.1785 18.0416 52.0265 17.5Z" fill="white"/>
</svg>
