<svg width="63" height="63" viewBox="0 0 63 63" fill="none" xmlns="http://www.w3.org/2000/svg">
<path fill-rule="evenodd" clip-rule="evenodd" d="M11.9913 47.9979C14.9943 49.1503 18.3228 49.6175 18.3595 49.6228C18.4357 49.6359 21.7012 50.1688 27.3659 49.3051C32.944 48.4546 37.7557 44.8348 37.8029 44.798C37.9683 44.6904 41.5777 42.4854 45.481 35.8809C49.366 29.3053 48.7019 21.8713 48.694 21.7978C48.6547 21.383 48.8095 20.9761 49.1193 20.6979C49.1193 20.6979 49.9225 19.9629 50.9935 19.0888C50.2559 19.2226 49.6128 19.3171 49.4868 19.3355C48.8778 19.4116 48.316 19.094 48.085 18.5428C47.8567 17.9889 48.0273 17.351 48.505 16.9888C48.5208 16.9809 49.3083 16.3798 50.2795 15.5371C48.8725 16.0123 47.6755 16.2301 47.6047 16.2433C47.0377 16.3325 46.489 16.0726 46.2239 15.5791C46.2318 15.6474 45.7777 15.2221 44.1738 14.1511C42.6172 13.1143 39.9292 13.0723 39.0262 13.1458C39.0262 13.1458 35.3197 13.6078 33.0569 16.7578C30.8125 19.8789 31.726 23.6195 31.7339 23.6589C31.8415 24.071 31.7392 24.5094 31.4635 24.8349C31.1879 25.1578 30.76 25.3179 30.3505 25.2943L27.8909 25.0816C27.4079 25.0449 24.6937 24.5803 21.94 23.6064C19.1785 22.6325 17.53 21.6193 15.2489 20.2201C13.7238 19.2856 11.7052 17.33 10.3795 15.9703C9.97265 17.2381 9.65765 19.1124 10.3165 21.1153C11.3797 24.3598 13.6818 25.709 13.7028 25.7221C14.1963 25.9925 14.4588 26.549 14.359 27.1029C14.2593 27.6568 13.8183 28.0846 13.2592 28.166C13.0019 28.2133 12.3483 28.2264 10.9045 27.9271C10.6289 27.872 10.3585 27.8038 10.1039 27.7224C10.3402 28.7435 10.8967 30.2896 12.2039 31.6468C14.3722 33.9043 16.5667 34.1904 16.6585 34.2009C17.3043 34.277 17.803 34.8178 17.8214 35.4688C17.8398 36.1198 17.3857 36.6815 16.7478 36.797C16.7478 36.797 15.2515 37.0648 14.3144 37.1566C14.2724 37.1593 14.2304 37.1645 14.1858 37.1671C14.2645 37.2958 14.3459 37.4244 14.4273 37.5478C14.4509 37.5871 15.6742 39.506 17.7164 40.4064C19.7849 41.3173 21.1788 41.2438 21.1893 41.2385C21.7747 41.1886 22.3075 41.5404 22.5123 42.0785C22.717 42.6193 22.5543 43.2283 22.0975 43.58C22.0004 43.6588 19.6668 45.4516 15.7477 47.0581C14.5297 47.5543 13.2382 47.843 11.9913 47.9979ZM21.289 52.4263C19.1916 52.4263 18.034 52.2294 17.9527 52.2136C17.8319 52.2005 13.8025 51.6335 10.3401 50.1609C4.99565 47.8955 5.15052 47.1395 5.30015 46.4098C5.43402 45.7509 6.20052 45.2731 6.87252 45.3755C9.86502 45.7272 12.7368 45.4516 14.7528 44.6274C15.8947 44.1601 16.8921 43.6745 17.7217 43.2283C17.383 43.1101 17.0287 42.971 16.6585 42.8083C13.8524 41.5719 12.2748 39.0598 12.2091 38.9521C11.9256 38.5164 11.2064 37.3693 11.0016 36.6973C10.81 36.062 10.7916 35.9859 10.7916 35.9859C10.6971 35.5501 10.8284 35.0829 11.1408 34.7679C11.2353 34.6708 11.3455 34.592 11.4636 34.5264C11.0804 34.2166 10.6945 33.8649 10.3113 33.4685C7.42115 30.4603 7.3109 26.843 7.30827 26.6908L7.2584 25.6933C7.23477 25.2076 7.48152 24.7509 7.8989 24.5015C8.21127 24.3151 8.58402 24.2731 8.92527 24.365C8.5079 23.6668 8.12465 22.8609 7.82277 21.9316C6.24777 17.1436 8.76515 13.0985 8.8754 12.9305C9.09327 12.5814 9.4634 12.3583 9.87027 12.3241C10.285 12.2874 10.6814 12.4475 10.957 12.752C11.9414 13.8466 14.8814 16.9153 16.6218 17.981C18.8452 19.3486 20.3151 20.249 22.8141 21.131C25.384 22.0393 27.8542 22.4435 28.0957 22.4645L28.9383 22.538C28.8254 20.7373 29.0302 17.8603 30.9254 15.2248C33.889 11.1009 38.5825 10.5523 38.782 10.5339C38.9815 10.5129 42.9899 10.2084 45.6307 11.9671C46.699 12.6811 47.3632 13.172 47.7832 13.5211C48.526 13.3479 49.7913 13.0014 50.8859 12.4633L53.104 11.3686C53.5739 11.1271 54.1409 11.1954 54.5452 11.5419C54.9468 11.8858 55.1017 12.437 54.9442 12.941C54.8785 13.1353 54.4612 14.3953 53.7157 15.5949C54.1777 15.4138 54.5268 15.2668 54.532 15.2641C55.0728 15.0489 55.6897 15.2011 56.0572 15.65C56.422 16.1041 56.4457 16.742 56.1175 17.2198C55.9417 17.477 54.3509 19.7634 53.0174 20.8291C52.3428 21.3699 51.7417 21.8844 51.3505 22.2256C51.445 24.3571 51.4004 31.022 47.7438 37.2144C43.4519 44.4778 39.4304 46.877 39.2624 46.9741C39.1784 47.0503 34.0203 50.9458 27.7623 51.8986C25.0874 52.3108 22.9087 52.4263 21.289 52.4263Z" fill="white" stroke="white"/>
</svg>
