<svg width="49" height="49" viewBox="0 0 49 49" fill="none" xmlns="http://www.w3.org/2000/svg">
<path fill-rule="evenodd" clip-rule="evenodd" d="M24.5 12.2501C19.9897 12.2501 16.3333 15.9064 16.3333 20.4167C16.3333 24.9271 19.9897 28.5834 24.5 28.5834C29.0103 28.5834 32.6667 24.9271 32.6667 20.4167C32.6667 15.9064 29.0103 12.2501 24.5 12.2501ZM24.5 16.3334C22.2448 16.3334 20.4167 18.1616 20.4167 20.4167C20.4167 22.6719 22.2448 24.5001 24.5 24.5001C26.7552 24.5001 28.5833 22.6719 28.5833 20.4167C28.5833 18.1616 26.7552 16.3334 24.5 16.3334Z" fill="white"/>
<path fill-rule="evenodd" clip-rule="evenodd" d="M22.6422 46.1331C22.8787 46.2956 23.0669 46.4207 23.1985 46.5068L23.4154 46.6465C24.0781 47.0614 24.9207 47.0621 25.5834 46.6472L25.8015 46.5068C25.9331 46.4207 26.1213 46.2956 26.3578 46.1331C26.8306 45.8083 27.4981 45.3334 28.2956 44.721C29.8872 43.4987 32.0135 41.7157 34.1462 39.4728C38.3541 35.0475 42.875 28.5272 42.875 20.788C42.875 15.8308 40.95 11.0676 37.5092 7.5487C34.067 4.0282 29.3883 2.04175 24.5 2.04175C19.6117 2.04175 14.933 4.0282 11.4908 7.5487C8.05004 11.0676 6.125 15.8308 6.125 20.788C6.125 28.5272 10.6459 35.0475 14.8538 39.4728C16.9865 41.7157 19.1128 43.4987 20.7044 44.721C21.5019 45.3334 22.1694 45.8083 22.6422 46.1331ZM24.5 6.12508C20.7246 6.12508 17.0943 7.65851 14.4104 10.4034C11.7249 13.1499 10.2083 16.8845 10.2083 20.788C10.2083 26.9515 13.8541 32.4956 17.8129 36.659C19.7635 38.7104 21.7206 40.3529 23.1914 41.4824C23.6928 41.8674 24.1357 42.1913 24.5 42.45C24.8643 42.1913 25.3072 41.8674 25.8086 41.4824C27.2794 40.3529 29.2365 38.7104 31.1871 36.659C35.146 32.4956 38.7917 26.9515 38.7917 20.788C38.7917 16.8845 37.2751 13.1499 34.5896 10.4034C31.9057 7.65851 28.2754 6.12508 24.5 6.12508Z" fill="white"/>
</svg>
